<?xml version="1.0" encoding="utf-8"?>
<!-- Generator: Adobe Illustrator 21.0.2, SVG Export Plug-In . SVG Version: 6.00 Build 0)  -->
<svg version="1.1" id="Layer_1" xmlns="http://www.w3.org/2000/svg" xmlns:xlink="http://www.w3.org/1999/xlink" x="0px" y="0px"
	 viewBox="0 0 686.4 1024" style="enable-background:new 0 0 686.4 1024;" xml:space="preserve">
<style type="text/css">
	.st0{fill:#FFFFFF;}
</style>
<path class="st0" d="M343.2,164.6C153.7,164.6,0,318.3,0,507.8c0,151.7,98.3,280.3,234.7,325.7c17.2,3.1,23.4-7.5,23.4-16.5
	c0-8.2-0.3-35.2-0.5-63.9C162.2,773.8,142,712.6,142,712.6c-15.6-39.6-38.1-50.2-38.1-50.2c-31.2-21.3,2.4-20.9,2.4-20.9
	c34.5,2.4,52.6,35.4,52.6,35.4c30.6,52.5,80.4,37.3,99.9,28.5c3.1-22.1,12-37.3,21.8-45.8c-76.2-8.7-156.4-38.1-156.4-169.7
	c0-37.5,13.4-68.1,35.3-92.1c-3.5-8.7-15.3-43.6,3.4-90.9c0,0,28.8-9.2,94.4,35.2c27.4-7.6,56.7-11.4,85.9-11.5
	c29.2,0.1,58.5,3.9,85.9,11.6c65.5-44.5,94.3-35.2,94.3-35.2c18.8,47.3,7,82.2,3.4,90.8c22,24,35.3,54.6,35.3,92.1
	c0,131.9-80.3,160.9-156.7,169.4c12.4,10.6,23.3,31.5,23.3,63.5c0,45.9-0.5,82.9-0.5,94.2c0,9.1,6.2,19.8,23.6,16.5
	c136.4-45.4,234.6-174.1,234.6-325.7C686.4,318.3,532.7,164.6,343.2,164.6z"/>
</svg>
